Coordinates
version=1
nRows=12
nColumns=33
inDegrees=yes

Units are S.I. units (second, meters, Newtons, ...)
Angles are in degrees.

endheader
time	ground_thorax_rot_x	ground_thorax_rot_y	ground_thorax_rot_z	ground_thorax_tx	ground_thorax_ty	ground_thorax_tz	clav_prot_r	clav_elev_r	scapula_abduction_r	scapula_elevation_r	scapula_upward_rot_r	scapula_winging_r	shoulder_elv_r	plane_of_elev_r	axial_rot_r	elbow_flexion_r	pro_sup_r	wrist_flex_r	wrist_dev_r	clav_prot_l	clav_elev_l	scapula_abduction_l	scapula_elevation_l	scapula_upward_rot_l	scapula_winging_l	shoulder_elv_l	plane_of_elev_l	axial_rot_l	elbow_flexion_l	pro_sup_l	wrist_flex_l	wrist_dev_l
      5.36000000	    -90.00000000	     90.00000000	    -90.00000000	   -210.94600763	    890.16417415	     -5.80879717	     22.46883648	     39.23717947	     45.00000000	     45.00000000	     19.71396476	   2147.66929211	   -256.82212655	     26.51822092	   -134.39926026	   1456.43693041	   -303.95579255	     18.11298286	      4.56160009	    -45.00000000	      4.37363858	     37.15096427	    -14.50123889	    -45.00000000	  -2415.43228588	   -771.56687975	    141.86044575	     -0.91043939	   -708.10843124	     38.22744159	      6.87918653	    -22.60679476
      5.37000000	    -90.00000000	     90.00000000	    -90.00000000	   -209.24622836	    891.66991745	     -5.83582228	     22.61445001	     39.23081570	     45.00000000	     45.00000000	     19.44112791	   2147.63151417	   -256.87847542	     26.46291252	   -134.69768701	   1456.56598761	   -302.75867846	     18.07449048	      4.46469734	    -45.00000000	      4.06264134	     37.23687860	    -14.22864236	    -45.00000000	  -2415.36529544	   -771.73805447	    141.98749259	     -0.50404582	   -708.01089258	     38.80929682	      6.70273258	    -22.58544551
      5.38000000	    -90.00000000	     90.00000000	    -90.00000000	   -207.47440545	    893.25800394	     -5.86302176	     22.76326700	     39.22543249	     45.00000000	     45.00000000	     19.15944180	   2147.60186503	   -256.94084698	     26.40653338	   -135.03665717	   1456.69828572	   -301.59922919	     18.03118834	      4.36545605	    -45.00000000	      3.72474265	     37.34490438	    -13.95001401	    -45.00000000	  -2415.27308906	   -771.92649799	    142.10920687	     -0.02090997	   -707.92325315	     39.32272277	      6.53418395	    -22.55811499
      5.39000000	    -90.00000000	     90.00000000	    -90.00000000	   -205.62227961	    894.90412864	     -5.88200478	     22.91739947	     39.21970800	     45.00000000	     45.00000000	     18.87607069	   2147.57625894	   -257.01025892	     26.34208054	   -135.42514760	   1456.83170589	   -300.48785628	     17.98196409	      4.26409825	    -45.00000000	      3.38453178	     37.45291975	    -13.66730551	    -45.00000000	  -2415.17086389	   -772.12469176	    142.23720085	      0.54771209	   -707.83984604	     39.75456023	      6.37989787	    -22.53093579
      5.40000000	    -90.00000000	     90.00000000	    -90.00000000	   -203.68483777	    896.57591360	     -5.88362186	     23.07049019	     39.23203031	     45.00000000	     45.00000000	     18.59355511	   2147.53629618	   -257.08142442	     26.27147958	   -135.84765466	   1456.93911661	   -299.38903278	     17.93221495	      4.17504757	    -45.00000000	      3.12628605	     37.58192423	    -13.38791726	    -45.00000000	  -2415.11943347	   -772.32893550	    142.42521570	      1.20293901	   -707.76288466	     40.10905225	      6.25079297	    -22.51170366
      5.41000000	    -90.00000000	     90.00000000	    -90.00000000	   -201.65997027	    898.23462944	     -5.85933090	     23.23308730	     39.22687749	     45.00000000	     45.00000000	     18.28472232	   2147.54448497	   -257.17890806	     26.21306272	   -136.33211736	   1457.07003325	   -298.34364645	     17.87814121	      4.07593877	    -45.00000000	      2.78117781	     37.70885664	    -13.15610635	    -45.00000000	  -2415.01447510	   -772.58776823	    142.56063124	      1.91637533	   -707.69841342	     40.35516547	      6.11469504	    -22.46959965
      5.42000000	    -90.00000000	     90.00000000	    -90.00000000	   -199.53876853	    899.84458207	     -5.80290187	     23.39842003	     39.22514266	     45.00000000	     45.00000000	     17.99682755	   2147.48691271	   -257.24834489	     26.11205076	   -136.85008631	   1457.20796709	   -297.33762804	     17.81645575	      3.97207031	    -45.00000000	      2.47907166	     37.80828323	    -12.89597953	    -45.00000000	  -2414.82674157	   -772.82667196	    142.65824212	      2.66658825	   -707.60849646	     40.48125328	      6.01831373	    -22.46379607
      5.43000000	    -90.00000000	     90.00000000	    -90.00000000	   -197.31875066	    901.36282326	     -5.71116142	     23.56012061	     39.24963296	     45.00000000	     45.00000000	     17.70134972	   2147.46508563	   -257.35978637	     26.02232708	   -137.40367001	   1457.30743539	   -296.30831405	     17.76681837	      3.89234526	    -45.00000000	      2.33167851	     37.99614568	    -12.71539870	    -45.00000000	  -2414.81751382	   -773.07750272	    142.90323132	      3.54213968	   -707.60782265	     40.48471265	      5.95080160	    -22.42969922
      5.44000000	    -90.00000000	     90.00000000	    -90.00000000	   -194.99320718	    902.74881005	     -5.58441273	     23.72677098	     39.26820742	     45.00000000	     45.00000000	     17.40257935	   2147.43048486	   -257.46883760	     25.93724593	   -137.98135436	   1457.42004265	   -295.26304702	     17.70782525	      3.80482740	    -45.00000000	      2.18575383	     38.17475214	    -12.53226120	    -45.00000000	  -2414.75665631	   -773.33222950	    143.11571242	      4.38844599	   -707.58580930	     40.33900406	      5.92527422	    -22.42689645
      5.45000000	    -90.00000000	     90.00000000	    -90.00000000	   -192.55878642	    903.96098346	     -5.42567889	     23.89317469	     39.30084174	     45.00000000	     45.00000000	     17.07392932	   2147.43036224	   -257.62829120	     25.88618296	   -138.58465362	   1457.48780796	   -294.16443540	     17.63633358	      3.72718461	    -45.00000000	      2.12552260	     38.37433403	    -12.43784991	    -45.00000000	  -2414.73272852	   -773.59890389	    143.34874468	      5.27850662	   -707.61352167	     40.04276041	      5.91267603	    -22.40035840
      5.46000000	    -90.00000000	     90.00000000	    -90.00000000	   -190.00650171	    904.96350981	     -5.23964817	     24.06442977	     39.32747975	     45.00000000	     45.00000000	     16.82867261	   2147.33119027	   -257.69845929	     25.75074702	   -139.25074460	   1457.63604327	   -293.03181400	     17.57306863	      3.63869681	    -45.00000000	      2.11847622	     38.58999681	    -12.28580875	    -45.00000000	  -2414.64951393	   -773.88733318	    143.60063094	      6.27307645	   -707.65534517	     39.56111304	      5.97351882	    -22.41368189
      5.47000000	    -90.00000000	     90.00000000	    -90.00000000	   -187.33772869	    905.72102980	     -5.03181890	     24.24202497	     39.32874634	     45.00000000	     45.00000000	     16.51745172	   2147.31109444	   -257.82445565	     25.64354589	   -139.97557559	   1457.78478483	   -291.92443403	     17.49711138	      3.54717722	    -45.00000000	      2.01538379	     38.80495960	    -12.38761579	    -45.00000000	  -2414.53425576	   -774.25899994	    143.65759924	      7.27133905	   -707.68315070	     38.90350722	      6.04715820	    -22.42078017
